<?xml version="1.0" encoding="UTF-8" standalone="no"?>
<!DOCTYPE svg PUBLIC "-//W3C//DTD SVG 1.1//EN"
 "http://www.w3.org/Graphics/SVG/1.1/DTD/svg11.dtd">
<!-- Generated by graphviz version 2.43.0 (0)
 -->
<!-- Title: %3 Pages: 1 -->
<svg width="1035pt" height="332pt"
 viewBox="0.00 0.00 1035.00 332.00" xmlns="http://www.w3.org/2000/svg" xmlns:xlink="http://www.w3.org/1999/xlink">
<g id="graph0" class="graph" transform="scale(1 1) rotate(0) translate(4 328)">
<title>%3</title>
<polygon fill="white" stroke="transparent" points="-4,4 -4,-328 1031,-328 1031,4 -4,4"/>
<!-- [root] aws_instance.example (expand) -->
<g id="node1" class="node">
<title>[root] aws_instance.example (expand)</title>
<polygon fill="none" stroke="black" points="278,-180 102,-180 102,-144 278,-144 278,-180"/>
<text text-anchor="middle" x="190" y="-158.3" font-family="Times,serif" font-size="14.00">aws_instance.example</text>
</g>
<!-- [root] provider[&quot;registry.terraform.io/hashicorp/aws&quot;] -->
<g id="node4" class="node">
<title>[root] provider[&quot;registry.terraform.io/hashicorp/aws&quot;]</title>
<polygon fill="none" stroke="black" points="476,-108 150.74,-90 476,-72 801.26,-90 476,-108"/>
<text text-anchor="middle" x="476" y="-86.3" font-family="Times,serif" font-size="14.00">provider[&quot;registry.terraform.io/hashicorp/aws&quot;]</text>
</g>
<!-- [root] aws_instance.example (expand)&#45;&gt;[root] provider[&quot;registry.terraform.io/hashicorp/aws&quot;] -->
<g id="edge1" class="edge">
<title>[root] aws_instance.example (expand)&#45;&gt;[root] provider[&quot;registry.terraform.io/hashicorp/aws&quot;]</title>
<path fill="none" stroke="black" d="M259.6,-143.97C305.1,-132.83 364.2,-118.36 409.14,-107.36"/>
<polygon fill="black" stroke="black" points="410.2,-110.71 419.08,-104.93 408.54,-103.91 410.2,-110.71"/>
</g>
<!-- [root] var.AMIS -->
<g id="node5" class="node">
<title>[root] var.AMIS</title>
<polygon fill="none" stroke="black" points="127,-108 51,-108 51,-72 133,-72 133,-102 127,-108"/>
<polyline fill="none" stroke="black" points="127,-108 127,-102 "/>
<polyline fill="none" stroke="black" points="133,-102 127,-102 "/>
<text text-anchor="middle" x="92" y="-86.3" font-family="Times,serif" font-size="14.00">var.AMIS</text>
</g>
<!-- [root] aws_instance.example (expand)&#45;&gt;[root] var.AMIS -->
<g id="edge2" class="edge">
<title>[root] aws_instance.example (expand)&#45;&gt;[root] var.AMIS</title>
<path fill="none" stroke="black" d="M166.03,-143.88C153.45,-134.89 137.87,-123.76 124.25,-114.03"/>
<polygon fill="black" stroke="black" points="126.24,-111.15 116.07,-108.19 122.17,-116.85 126.24,-111.15"/>
</g>
<!-- [root] aws_key_pair.mykey (expand) -->
<g id="node2" class="node">
<title>[root] aws_key_pair.mykey (expand)</title>
<polygon fill="none" stroke="black" points="705.5,-180 544.5,-180 544.5,-144 705.5,-144 705.5,-180"/>
<text text-anchor="middle" x="625" y="-158.3" font-family="Times,serif" font-size="14.00">aws_key_pair.mykey</text>
</g>
<!-- [root] aws_key_pair.mykey (expand)&#45;&gt;[root] provider[&quot;registry.terraform.io/hashicorp/aws&quot;] -->
<g id="edge3" class="edge">
<title>[root] aws_key_pair.mykey (expand)&#45;&gt;[root] provider[&quot;registry.terraform.io/hashicorp/aws&quot;]</title>
<path fill="none" stroke="black" d="M588.55,-143.88C567.14,-133.82 540,-121.07 517.74,-110.61"/>
<polygon fill="black" stroke="black" points="519.06,-107.36 508.52,-106.28 516.09,-113.7 519.06,-107.36"/>
</g>
<!-- [root] var.PATH_TO_PUBLIC_KEY -->
<g id="node10" class="node">
<title>[root] var.PATH_TO_PUBLIC_KEY</title>
<polygon fill="none" stroke="black" points="1021,-108 819,-108 819,-72 1027,-72 1027,-102 1021,-108"/>
<polyline fill="none" stroke="black" points="1021,-108 1021,-102 "/>
<polyline fill="none" stroke="black" points="1027,-102 1021,-102 "/>
<text text-anchor="middle" x="923" y="-86.3" font-family="Times,serif" font-size="14.00">var.PATH_TO_PUBLIC_KEY</text>
</g>
<!-- [root] aws_key_pair.mykey (expand)&#45;&gt;[root] var.PATH_TO_PUBLIC_KEY -->
<g id="edge4" class="edge">
<title>[root] aws_key_pair.mykey (expand)&#45;&gt;[root] var.PATH_TO_PUBLIC_KEY</title>
<path fill="none" stroke="black" d="M697.52,-143.97C740.68,-133.83 795.6,-120.93 840.43,-110.4"/>
<polygon fill="black" stroke="black" points="841.48,-113.74 850.42,-108.05 839.88,-106.93 841.48,-113.74"/>
</g>
<!-- [root] output.ip -->
<g id="node3" class="node">
<title>[root] output.ip</title>
<polygon fill="none" stroke="black" points="76,-252 0,-252 0,-216 82,-216 82,-246 76,-252"/>
<polyline fill="none" stroke="black" points="76,-252 76,-246 "/>
<polyline fill="none" stroke="black" points="82,-246 76,-246 "/>
<text text-anchor="middle" x="41" y="-230.3" font-family="Times,serif" font-size="14.00">output.ip</text>
</g>
<!-- [root] output.ip&#45;&gt;[root] aws_instance.example (expand) -->
<g id="edge5" class="edge">
<title>[root] output.ip&#45;&gt;[root] aws_instance.example (expand)</title>
<path fill="none" stroke="black" d="M77.45,-215.88C97.64,-206.39 122.92,-194.51 144.41,-184.42"/>
<polygon fill="black" stroke="black" points="146.11,-187.49 153.67,-180.07 143.13,-181.15 146.11,-187.49"/>
</g>
<!-- [root] var.AWS_ACCESS_KEY -->
<g id="node6" class="node">
<title>[root] var.AWS_ACCESS_KEY</title>
<polygon fill="none" stroke="black" points="380,-36 206,-36 206,0 386,0 386,-30 380,-36"/>
<polyline fill="none" stroke="black" points="380,-36 380,-30 "/>
<polyline fill="none" stroke="black" points="386,-30 380,-30 "/>
<text text-anchor="middle" x="296" y="-14.3" font-family="Times,serif" font-size="14.00">var.AWS_ACCESS_KEY</text>
</g>
<!-- [root] provider[&quot;registry.terraform.io/hashicorp/aws&quot;]&#45;&gt;[root] var.AWS_ACCESS_KEY -->
<g id="edge8" class="edge">
<title>[root] provider[&quot;registry.terraform.io/hashicorp/aws&quot;]&#45;&gt;[root] var.AWS_ACCESS_KEY</title>
<path fill="none" stroke="black" d="M437.39,-73.98C411.68,-63.99 377.56,-50.72 349.28,-39.72"/>
<polygon fill="black" stroke="black" points="350.52,-36.45 339.93,-36.08 347.98,-42.97 350.52,-36.45"/>
</g>
<!-- [root] var.AWS_REGION -->
<g id="node7" class="node">
<title>[root] var.AWS_REGION</title>
<polygon fill="none" stroke="black" points="542,-36 404,-36 404,0 548,0 548,-30 542,-36"/>
<polyline fill="none" stroke="black" points="542,-36 542,-30 "/>
<polyline fill="none" stroke="black" points="548,-30 542,-30 "/>
<text text-anchor="middle" x="476" y="-14.3" font-family="Times,serif" font-size="14.00">var.AWS_REGION</text>
</g>
<!-- [root] provider[&quot;registry.terraform.io/hashicorp/aws&quot;]&#45;&gt;[root] var.AWS_REGION -->
<g id="edge9" class="edge">
<title>[root] provider[&quot;registry.terraform.io/hashicorp/aws&quot;]&#45;&gt;[root] var.AWS_REGION</title>
<path fill="none" stroke="black" d="M476,-71.7C476,-63.98 476,-54.71 476,-46.11"/>
<polygon fill="black" stroke="black" points="479.5,-46.1 476,-36.1 472.5,-46.1 479.5,-46.1"/>
</g>
<!-- [root] var.AWS_SECRET_KEY -->
<g id="node8" class="node">
<title>[root] var.AWS_SECRET_KEY</title>
<polygon fill="none" stroke="black" points="741.5,-36 566.5,-36 566.5,0 747.5,0 747.5,-30 741.5,-36"/>
<polyline fill="none" stroke="black" points="741.5,-36 741.5,-30 "/>
<polyline fill="none" stroke="black" points="747.5,-30 741.5,-30 "/>
<text text-anchor="middle" x="657" y="-14.3" font-family="Times,serif" font-size="14.00">var.AWS_SECRET_KEY</text>
</g>
<!-- [root] provider[&quot;registry.terraform.io/hashicorp/aws&quot;]&#45;&gt;[root] var.AWS_SECRET_KEY -->
<g id="edge10" class="edge">
<title>[root] provider[&quot;registry.terraform.io/hashicorp/aws&quot;]&#45;&gt;[root] var.AWS_SECRET_KEY</title>
<path fill="none" stroke="black" d="M514.83,-73.98C540.68,-63.99 574.99,-50.72 603.43,-39.72"/>
<polygon fill="black" stroke="black" points="604.76,-42.96 612.83,-36.08 602.24,-36.43 604.76,-42.96"/>
</g>
<!-- [root] var.PATH_TO_PRIVATE_KEY -->
<g id="node9" class="node">
<title>[root] var.PATH_TO_PRIVATE_KEY</title>
<polygon fill="none" stroke="black" points="309.5,-252 100.5,-252 100.5,-216 315.5,-216 315.5,-246 309.5,-252"/>
<polyline fill="none" stroke="black" points="309.5,-252 309.5,-246 "/>
<polyline fill="none" stroke="black" points="315.5,-246 309.5,-246 "/>
<text text-anchor="middle" x="208" y="-230.3" font-family="Times,serif" font-size="14.00">var.PATH_TO_PRIVATE_KEY</text>
</g>
<!-- [root] provider[&quot;registry.terraform.io/hashicorp/aws&quot;] (close) -->
<g id="node11" class="node">
<title>[root] provider[&quot;registry.terraform.io/hashicorp/aws&quot;] (close)</title>
<ellipse fill="none" stroke="black" cx="625" cy="-234" rx="291.65" ry="18"/>
<text text-anchor="middle" x="625" y="-230.3" font-family="Times,serif" font-size="14.00">[root] provider[&quot;registry.terraform.io/hashicorp/aws&quot;] (close)</text>
</g>
<!-- [root] provider[&quot;registry.terraform.io/hashicorp/aws&quot;] (close)&#45;&gt;[root] aws_instance.example (expand) -->
<g id="edge6" class="edge">
<title>[root] provider[&quot;registry.terraform.io/hashicorp/aws&quot;] (close)&#45;&gt;[root] aws_instance.example (expand)</title>
<path fill="none" stroke="black" d="M525.75,-217.03C454.65,-205.59 359.32,-190.25 288.41,-178.84"/>
<polygon fill="black" stroke="black" points="288.56,-175.32 278.13,-177.18 287.45,-182.23 288.56,-175.32"/>
</g>
<!-- [root] provider[&quot;registry.terraform.io/hashicorp/aws&quot;] (close)&#45;&gt;[root] aws_key_pair.mykey (expand) -->
<g id="edge7" class="edge">
<title>[root] provider[&quot;registry.terraform.io/hashicorp/aws&quot;] (close)&#45;&gt;[root] aws_key_pair.mykey (expand)</title>
<path fill="none" stroke="black" d="M625,-215.7C625,-207.98 625,-198.71 625,-190.11"/>
<polygon fill="black" stroke="black" points="628.5,-190.1 625,-180.1 621.5,-190.1 628.5,-190.1"/>
</g>
<!-- [root] root -->
<g id="node12" class="node">
<title>[root] root</title>
<ellipse fill="none" stroke="black" cx="208" cy="-306" rx="58.49" ry="18"/>
<text text-anchor="middle" x="208" y="-302.3" font-family="Times,serif" font-size="14.00">[root] root</text>
</g>
<!-- [root] root&#45;&gt;[root] output.ip -->
<g id="edge11" class="edge">
<title>[root] root&#45;&gt;[root] output.ip</title>
<path fill="none" stroke="black" d="M174.61,-291C150.68,-280.97 118.04,-267.29 91.02,-255.97"/>
<polygon fill="black" stroke="black" points="92.29,-252.7 81.72,-252.07 89.58,-259.16 92.29,-252.7"/>
</g>
<!-- [root] root&#45;&gt;[root] var.PATH_TO_PRIVATE_KEY -->
<g id="edge13" class="edge">
<title>[root] root&#45;&gt;[root] var.PATH_TO_PRIVATE_KEY</title>
<path fill="none" stroke="black" d="M208,-287.7C208,-279.98 208,-270.71 208,-262.11"/>
<polygon fill="black" stroke="black" points="211.5,-262.1 208,-252.1 204.5,-262.1 211.5,-262.1"/>
</g>
<!-- [root] root&#45;&gt;[root] provider[&quot;registry.terraform.io/hashicorp/aws&quot;] (close) -->
<g id="edge12" class="edge">
<title>[root] root&#45;&gt;[root] provider[&quot;registry.terraform.io/hashicorp/aws&quot;] (close)</title>
<path fill="none" stroke="black" d="M258.3,-296.56C322.62,-285.76 435.67,-266.78 519.29,-252.74"/>
<polygon fill="black" stroke="black" points="520.06,-256.16 529.34,-251.06 518.9,-249.26 520.06,-256.16"/>
</g>
</g>
</svg>
